<?xml version="1.0" encoding="UTF-8"?>
<svg width="316px" height="214px" viewBox="0 0 316 214" version="1.1" xmlns="http://www.w3.org/2000/svg" xmlns:xlink="http://www.w3.org/1999/xlink">
    <!-- Generator: Sketch 54.1 (76490) - https://sketchapp.com -->
    <title>support-pic</title>
    <desc>Created with Sketch.</desc>
    <defs>
        <linearGradient x1="0.405649949%" y1="49.9747126%" x2="100.089757%" y2="49.9747126%" id="linearGradient-1">
            <stop stop-color="#FFC000" offset="0%"></stop>
            <stop stop-color="#FFEB23" offset="100%"></stop>
        </linearGradient>
        <linearGradient x1="49.9652467%" y1="-0.10717245%" x2="49.9652467%" y2="140.157786%" id="linearGradient-2">
            <stop stop-color="#AACEFC" offset="1.530612%"></stop>
            <stop stop-color="#D5E8FC" offset="15.3%"></stop>
            <stop stop-color="#FFFFFF" offset="100%"></stop>
        </linearGradient>
        <linearGradient x1="1.01289769%" y1="49.9766839%" x2="100.218912%" y2="49.9766839%" id="linearGradient-3">
            <stop stop-color="#00D0A4" offset="0%"></stop>
            <stop stop-color="#00BFA1" offset="100%"></stop>
        </linearGradient>
        <linearGradient x1="0.405649949%" y1="49.9747126%" x2="100.089757%" y2="49.9747126%" id="linearGradient-4">
            <stop stop-color="#FFC000" offset="0%"></stop>
            <stop stop-color="#FFEB23" offset="100%"></stop>
        </linearGradient>
    </defs>
    <g id="Page-1" stroke="none" stroke-width="1" fill="none" fill-rule="evenodd">
        <g id="Info" transform="translate(-1134.000000, -389.000000)">
            <g id="support-pic" transform="translate(1134.000000, 389.000000)">
                <path d="M36.0128546,182 C36.0128546,182 52.0772004,135.862285 77.4158079,132.61315 C102.754415,129.364016 159.062432,140.086161 159.062432,140.086161 C159.062432,140.086161 189.700617,156.819205 193.012855,181.837544 L36.0128546,182 Z" id="Shape" fill="#00D0A4" fill-rule="nonzero"></path>
                <rect id="Rectangle-path" fill="#E1E8FF" fill-rule="nonzero" x="0.0128545753" y="183" width="315" height="2"></rect>
                <path d="M43.8716968,187.847414 C49.8468896,188.993755 52.1705757,181.460656 52.0045982,178.349157 C51.8386206,175.073896 48.5190691,169.833478 43.0418089,174.74637 C39.3903021,169.505952 33.5810869,170.324767 32.5852214,173.763792 C29.0996923,169.997241 24.6182976,172.126161 23.6224321,175.401422 C22.460589,178.676683 22.6265666,188.829993 27.1079613,188.993755 C31.0914232,189.157519 31.7553334,186.04602 31.7553334,186.04602 C35.2408626,189.976334 40.3861676,188.011178 41.5480107,185.390968 C41.5480107,185.390968 41.7139882,187.356126 43.8716968,187.847414 Z" id="Shape" fill="#E1E8FF" fill-rule="nonzero"></path>
                <path d="M200.871697,187.847414 C206.84689,188.993755 209.170576,181.460656 209.004598,178.349157 C208.838621,175.237659 205.519068,169.833478 200.041809,174.74637 C196.390302,169.505952 190.581086,170.324767 189.585221,173.763792 C186.099693,169.997241 181.618297,172.126161 180.622432,175.401422 C179.460589,178.676683 179.626566,188.829993 184.107962,188.993755 C188.091424,189.157519 188.755335,186.04602 188.755335,186.04602 C192.240863,189.976334 197.386167,188.011178 198.54801,185.390968 C198.382033,185.390968 198.54801,187.356126 200.871697,187.847414 Z" id="Shape" fill="#E1E8FF" fill-rule="nonzero"></path>
                <g id="Group" transform="translate(30.012855, 0.000000)">
                    <path d="M118.007175,53.7365128 C118.007175,32.3088691 102.94595,1.17182427 75.1406134,0.837017333 C47.3352763,0.5022104 38.7288624,4.18508667 39.3908943,12.2204531 C40.052926,20.2558195 48.8248479,15.4011189 50.4799274,19.0839953 C52.135007,22.7668714 54.4521184,36.1591488 42.8665614,53.7365128 C67.0307233,53.7365128 118.007175,53.7365128 118.007175,53.7365128 Z" id="Shape" fill="#00D0A4" fill-rule="nonzero"></path>
                    <g id="Shape" transform="translate(39.024406, 0.000000)">
                        <path d="M49.0258277,44.3619186 L44.226097,38.3353939 C44.060589,38.000587 44.226097,37.6657801 44.5571129,37.6657801 L52.335987,37.4983765 C53.4945426,35.8243418 54.9841143,34.1503072 56.8047019,32.8110794 C61.7699407,28.7933962 67.7282272,27.1193615 73.0244818,27.621572 C69.0522908,19.4188022 63.2595123,11.8856461 55.8116542,6.86354213 C55.8116542,6.86354213 55.8116542,7.03094559 55.8116542,7.03094559 C55.8116542,10.2116115 54.1565745,13.0574704 51.5084471,14.8989085 L51.5084471,19.7536092 C51.5084471,19.9210125 51.1774313,20.0884161 51.0119232,19.9210125 L47.0397322,17.0751536 C45.7156686,17.4099605 44.391605,17.577364 43.0675412,17.577364 C36.116207,17.577364 30.4889365,12.8900669 30.4889365,7.03094559 C30.4889365,4.68729707 31.4819842,2.51105199 32.9715559,0.837017333 C28.337333,0.837017333 24.3651419,1.0044208 20.8894748,1.17182427 C20.5584589,3.0132624 19.5654112,4.68729707 17.9103315,5.85912134 L18.0758396,9.54199761 C18.0758396,9.70940107 17.9103315,9.87680454 17.7448235,9.70940107 L14.7656803,7.533156 C13.7726326,7.86796293 12.7795848,8.0353664 11.7865371,8.0353664 C8.64188586,8.20276987 5.6627426,7.03094559 3.84215504,5.18950747 C1.35953566,7.03094559 0.366487912,9.20719067 0.531995872,12.0530496 C1.19402771,20.0884161 9.96594952,15.2337155 11.6210291,18.9165917 C12.2830609,20.5906264 13.2761087,24.1060991 12.9450928,29.1282031 C14.6001724,26.9519582 17.4138077,25.6127304 20.5584589,25.4453269 C25.8547136,25.2779235 30.4889365,28.6259928 30.6544443,33.1458864 C30.8199523,35.6569385 29.4958887,37.8331835 27.6753011,39.3398147 L27.8408091,43.022691 C27.8408091,43.1900944 27.6753011,43.3574978 27.5097932,43.1900944 L24.53065,41.0138494 C23.5376022,41.3486564 22.5445545,41.5160597 21.5515067,41.5160597 C17.2482997,41.6834633 13.4416167,39.5072181 12.117553,36.3265523 C10.9589973,41.3486564 8.64188586,47.2077776 4.33867892,53.7365128 C15.924236,53.7365128 33.7990956,53.7365128 49.3568438,53.7365128 C48.198288,50.8906539 48.198288,47.5425846 49.0258277,44.3619186 Z" id="Path"></path>
                        <path d="M43.0675412,17.577364 C44.391605,17.577364 45.7156686,17.4099605 47.0397322,17.0751536 L50.8464154,20.0884161 C51.0119232,20.2558195 51.3429393,20.0884161 51.3429393,19.9210125 L51.3429393,15.066312 C53.9910665,13.2248739 55.6461462,10.3790149 55.6461462,7.19834906 C55.6461462,7.19834906 55.6461462,7.03094559 55.6461462,7.03094559 C50.1843835,3.34806933 43.5640651,1.17182427 36.281715,1.0044208 C35.1231592,1.0044208 34.1301114,1.0044208 33.1370637,1.0044208 C31.6474921,2.67845546 30.6544443,4.85470054 30.6544443,7.19834906 C30.4889365,12.8900669 36.116207,17.577364 43.0675412,17.577364 Z" id="Path" fill="#00BFA1" fill-rule="nonzero"></path>
                        <path d="M72.8589738,27.621572 C67.5627192,26.9519582 61.6044327,28.6259928 56.6391939,32.8110794 C54.9841143,34.3177107 53.4945426,35.8243418 52.170479,37.4983765 L44.391605,37.6657801 C44.060589,37.6657801 43.8950811,38.1679904 44.060589,38.3353939 L48.8603199,44.3619186 C48.03278,47.5425846 48.03278,50.7232503 48.8603199,53.7365128 C65.2456078,53.7365128 78.9827683,53.7365128 78.9827683,53.7365128 C78.9827683,45.7011463 76.9966728,36.1591488 72.8589738,27.621572 Z" id="Path" fill="#00BFA1" fill-rule="nonzero"></path>
                        <path d="M21.2204907,41.6834633 C22.2135384,41.6834633 23.3720942,41.5160597 24.1996339,41.1812528 L27.1787772,43.3574978 C27.3442852,43.5249013 27.5097932,43.3574978 27.5097932,43.1900944 L27.3442852,39.5072181 C29.3303807,38.000587 30.4889365,35.6569385 30.3234285,33.3132899 C30.1579204,28.7933962 25.6892056,25.4453269 20.2274429,25.6127304 C17.0827918,25.7801338 14.2691564,27.2867651 12.6140769,29.2956067 C12.4485689,31.4718517 12.117553,33.8155002 11.4555212,36.4939557 C13.1106007,39.6746217 16.9172838,41.8508667 21.2204907,41.6834633 Z" id="Path" fill="#00BFA1" fill-rule="nonzero"></path>
                        <path d="M11.6210291,8.20276987 C12.6140769,8.20276987 13.7726326,8.0353664 14.6001724,7.70055946 L17.5793157,9.87680454 C17.7448235,10.044208 17.9103315,9.87680454 17.9103315,9.70940107 L17.7448235,6.02652481 C19.2343952,4.85470054 20.3929509,3.18066586 20.7239668,1.33922773 C12.117553,2.00884161 6.65579035,3.34806933 3.67664709,5.35691094 C5.49723464,7.19834906 8.47637789,8.37017333 11.6210291,8.20276987 Z" id="Path" fill="#00BFA1" fill-rule="nonzero"></path>
                    </g>
                    <path d="M126.117065,77.1729982 L31.4465122,77.1729982 L31.4465122,55.7453544 C31.4465122,54.5735302 32.274052,53.7365128 33.4326077,53.7365128 L123.634445,53.7365128 C124.958509,53.7365128 126.117065,54.9083371 126.117065,56.2475649 L126.117065,77.1729982 Z" id="Shape" fill="url(#linearGradient-1)" fill-rule="nonzero"></path>
                    <path d="M150.446735,90.9000823 L6.7858263,90.9000823 C3.31015917,90.9000823 0.496523876,88.0542235 0.496523876,84.5387508 L0.496523876,77.1729982 L157.067053,77.1729982 L157.067053,84.2039438 C157.067053,87.8868199 154.08791,90.9000823 150.446735,90.9000823 Z" id="Shape" fill="#00D0A4" fill-rule="nonzero"></path>
                    <path d="M35.4187032,90.9000823 C30.7844803,92.908924 31.7775281,96.5918002 35.4187032,97.4288177 C21.6815425,103.455342 17.0473198,118.521654 19.1989232,125.720004 C21.3505267,132.918353 28.467369,139.949298 42.3700375,137.103439 C31.9430361,150.66312 37.5703066,184.311217 60.7414209,188.663707 C85.7331226,193.351003 98.3117275,176.443254 100.794347,163.050977 C107.911189,173.429991 117.179635,168.407887 119.662254,166.064239 C124.130969,161.879152 121.64835,152.169751 116.021079,148.654279 C131.247811,152.337155 138.364653,140.618912 138.861177,133.25316 C139.357701,125.887407 135.38551,114.336568 125.620541,111.323305 C137.702622,109.14706 131.082303,101.948711 126.779097,104.124956 C134.888986,99.1028523 132.737383,90.9000823 129.427224,90.9000823 C111.05584,90.9000823 35.4187032,90.9000823 35.4187032,90.9000823 Z" id="Shape" fill="url(#linearGradient-2)" fill-rule="nonzero"></path>
                    <path d="M97.1531718,75.4989635 C97.1531718,76.5033843 96.325632,77.1729982 95.4980923,77.1729982 L64.0515801,77.1729982 C63.0585323,77.1729982 62.3965004,76.3359808 62.3965004,75.4989635 L62.3965004,53.5691094 C62.3965004,52.5646886 63.2240403,51.8950747 64.0515801,51.8950747 L95.3325843,51.8950747 C96.325632,51.8950747 96.9876639,52.732092 96.9876639,53.5691094 L96.9876639,75.4989635 L97.1531718,75.4989635 Z M66.2031836,73.3227184 L93.3464888,73.3227184 L93.3464888,55.7453544 L66.2031836,55.7453544 L66.2031836,73.3227184 Z" id="Shape" fill="#FFFFFF" fill-rule="nonzero"></path>
                    <path d="M93.0154729,67.4635971 L85.4021067,67.4635971 C84.409059,67.4635971 83.7470271,66.4591763 83.7470271,65.4547555 C83.7470271,64.4503347 84.574567,63.4459139 85.4021067,63.4459139 L93.0154729,63.4459139 C94.0085207,63.4459139 94.6705524,64.4503347 94.6705524,65.4547555 C94.8360604,66.4591763 94.0085207,67.4635971 93.0154729,67.4635971 Z" id="Shape" fill="#FFFFFF" fill-rule="nonzero"></path>
                    <path d="M78.7817883,108.477446 C78.1197566,108.477446 77.6232327,107.975236 77.6232327,107.473026 C77.6232327,107.138219 76.7956928,103.455342 72.9890098,103.455342 C72.9890098,103.455342 72.9890098,103.455342 72.9890098,103.455342 C69.3478347,103.455342 68.1892791,107.138219 68.1892791,107.138219 C68.0237711,107.807833 67.3617392,108.142639 66.6997075,107.975236 C66.0376756,107.807833 65.7066597,107.138219 65.8721675,106.468605 C66.5341994,104.627167 68.685803,100.94429 72.9890098,100.94429 C72.9890098,100.94429 72.9890098,100.94429 72.9890098,100.94429 C77.9542486,100.94429 79.7748361,104.961974 80.1058521,107.138219 C80.27136,107.807833 79.7748361,108.477446 79.1128044,108.64485 C78.9472963,108.477446 78.7817883,108.477446 78.7817883,108.477446 Z" id="Shape" fill="#350D89" fill-rule="nonzero"></path>
                    <path d="M89.2087897,108.477446 C89.0432819,108.477446 89.0432819,108.477446 88.8777739,108.477446 C88.215742,108.310043 87.8847261,107.640429 87.8847261,106.970815 C88.38125,104.961974 90.3673455,101.279097 94.6705524,100.94429 C99.6357911,100.609483 101.787395,104.459763 102.283919,106.636008 C102.449427,107.305622 101.952903,107.975236 101.290871,108.142639 C100.628839,108.310043 99.9668072,107.807833 99.8012992,107.138219 C99.6357911,106.803412 98.8082514,103.287939 94.8360604,103.455342 C91.1948852,103.790149 90.3673455,107.305622 90.2018375,107.473026 C90.3673455,107.975236 89.8708216,108.477446 89.2087897,108.477446 Z" id="Shape" fill="#350D89" fill-rule="nonzero"></path>
                </g>
                <path d="M286.637855,183 L264.512855,186.936508 L242.387856,183 L235.012855,206.783068 C235.012855,206.783068 246.913423,214 264.512855,214 C282.112286,214 294.012855,206.783068 294.012855,206.783068 L286.637855,183 Z" id="Shape" fill="#C2D2FF" fill-rule="nonzero"></path>
                <circle id="Oval" fill="url(#linearGradient-3)" fill-rule="nonzero" cx="264.012855" cy="169" r="32"></circle>
                <path d="M279.503768,159.5 C276.103676,156.166667 270.663527,156.166667 267.263434,159.5 L264.033347,162.666667 L260.803259,159.5 C257.403165,156.166667 251.963017,156.166667 248.562925,159.5 C245.162831,162.833333 245.162831,168.166667 248.562925,171.5 L252.133021,175 L261.823285,184.5 C262.503304,185.166667 263.183323,185.666666 263.863341,186 C264.54336,185.666666 265.393383,185.166667 265.903396,184.5 L275.593661,175 L279.163758,171.5 C282.90386,168.166667 282.90386,162.833333 279.503768,159.5 Z" id="Shape" fill="url(#linearGradient-4)" fill-rule="nonzero"></path>
                <path d="M227.012855,111 C229.179521,114.833333 232.179521,118 236.012855,120 C232.179521,122.166667 229.012855,125.166667 227.012855,129 C224.846188,125.166667 221.846188,122 218.012855,120 C221.846188,117.833333 224.846188,114.833333 227.012855,111 Z" id="Shape" fill="#FFC302" fill-rule="nonzero"></path>
                <path d="M311.012855,137 C312.141887,139.096774 313.916079,140.870968 316.012855,142 C313.916079,143.129032 312.141887,144.903226 311.012855,147 C309.883822,144.903226 308.109628,143.129032 306.012855,142 C308.109628,140.870968 309.883822,139.096774 311.012855,137 Z" id="Shape" fill="#FFC302" fill-rule="nonzero"></path>
                <path d="M263.012855,82 C265.179521,85.8333333 268.179521,88.9999999 272.012855,91 C268.179521,93.1666667 265.012855,96.1666667 263.012855,100 C260.846188,96.1666667 257.846188,92.9999999 254.012855,91 C257.846188,88.9999999 260.846188,85.8333333 263.012855,82 Z" id="Shape" fill="#FFC302" fill-rule="nonzero"></path>
            </g>
        </g>
    </g>
</svg>